<?xml version="1.0" standalone="no"?>
<!DOCTYPE svg PUBLIC "-//W3C//DTD SVG 20010904//EN"
 "http://www.w3.org/TR/2001/REC-SVG-20010904/DTD/svg10.dtd">
<svg version="1.0" xmlns="http://www.w3.org/2000/svg"
 width="540.000000pt" height="462.000000pt" viewBox="0 0 540.000000 462.000000"
 preserveAspectRatio="xMidYMid meet">

<g transform="translate(0.000000,462.000000) scale(0.100000,-0.100000)"
fill="#666666" stroke="none">
<path d="M4264 4609 c-3 -6 -6 -39 -6 -72 0 -34 -5 -68 -10 -74 -7 -8 -36 -13
-79 -13 -39 0 -69 -4 -69 -10 0 -6 30 -10 69 -10 l70 0 4 -42 c3 -42 4 -42 5
9 1 30 7 53 14 55 9 3 13 30 13 86 0 45 -1 82 -2 82 -1 0 -5 -5 -9 -11z"/>
<path d="M5113 4612 c-12 -8 -23 -162 -10 -162 9 0 10 9 11 90 l1 65 48 3 47
3 0 -80 c0 -45 4 -81 8 -81 5 0 8 -24 7 -52 -2 -39 -1 -42 2 -10 l4 42 75 0
74 0 0 -44 0 -43 -70 -5 c-39 -3 -73 -7 -75 -10 -3 -2 -5 -939 -5 -2081 -1
-1304 -5 -2077 -11 -2077 -5 0 -9 -34 -9 -75 0 -43 4 -75 10 -75 6 0 10 32 10
75 l0 75 69 0 c46 0 71 -4 74 -12 3 -7 6 -3 6 9 1 12 6 25 11 28 13 8 13 88 0
101 -6 6 -11 483 -13 1369 l-2 1360 -3 -1362 -2 -1363 -65 0 -65 0 0 2010 0
2010 65 0 65 0 2 -252 2 -253 7 255 c3 140 10 270 14 288 8 35 -13 122 -24
103 -4 -5 -35 -11 -71 -12 l-65 -3 -3 74 c-2 41 -8 80 -14 87 -11 14 -85 18
-105 5z m267 -4378 c0 -43 -1 -44 -32 -45 -18 0 -44 -2 -58 -4 -49 -7 -60 3
-60 53 l0 47 75 -3 75 -4 0 -44z"/>
<path d="M4370 4525 c0 -43 2 -76 5 -73 8 7 8 138 1 145 -3 4 -6 -29 -6 -72z"/>
<path d="M4588 4593 c89 -2 235 -2 325 0 89 1 16 3 -163 3 -179 0 -252 -2
-162 -3z"/>
<path d="M4081 4384 c0 -11 3 -14 6 -6 3 7 2 16 -1 19 -3 4 -6 -2 -5 -13z"/>
<path d="M4118 4332 c-56 -7 -26 -17 42 -14 l70 4 0 -321 0 -321 -72 -2 -73
-2 75 -5 75 -6 3 -39 c4 -50 -6 -56 -91 -56 -40 0 -66 -4 -62 -9 3 -5 1 -12
-5 -16 -5 -3 -10 -40 -10 -81 0 -48 4 -73 10 -69 6 3 10 37 10 75 0 88 7 92
123 82 21 -2 22 -30 1 -60 -8 -12 -11 -22 -6 -22 5 0 15 14 23 32 10 24 13
125 13 434 l1 403 -50 -1 c-27 -1 -62 -4 -77 -6z"/>
<path d="M55 4103 c-51 -8 -55 -17 -55 -129 0 -92 2 -104 20 -114 10 -5 80
-14 155 -18 75 -5 140 -13 143 -19 4 -5 36 -11 72 -12 36 -2 70 -7 76 -12 6
-5 10 -37 10 -71 l-1 -63 -107 -3 -108 -3 -2 73 -2 73 -3 -65 c-2 -35 1 -74 7
-85 7 -13 10 -82 8 -197 l-3 -176 99 -1 c55 -1 101 -3 104 -5 7 -8 7 -136 0
-137 -29 -5 -57 -7 -125 -8 l-78 -1 0 -790 0 -790 105 0 106 0 -1 -67 c0 -38
-4 -71 -10 -75 -5 -4 -53 -8 -106 -8 l-96 0 6 -33 c4 -26 6 -28 9 -9 3 19 9
22 47 22 40 0 44 -2 48 -27 l4 -28 2 28 c1 25 4 27 44 27 32 0 53 -7 80 -27
l36 -28 1 -107 c0 -65 4 -108 10 -108 6 0 10 45 10 115 l0 115 75 0 75 0 0
-120 c0 -66 3 -120 8 -120 4 0 7 48 7 107 l0 108 190 6 c105 4 560 7 1011 8
775 1 822 0 826 -16 2 -10 3 -59 1 -110 -2 -54 1 -94 7 -98 6 -4 10 37 10 114
l0 121 75 0 75 0 0 -121 c0 -77 4 -118 10 -114 6 4 10 53 10 116 0 91 3 109
15 109 8 0 23 12 33 27 15 25 22 28 65 25 38 -3 47 -7 47 -21 0 -42 -43 -153
-75 -196 -39 -50 -47 -71 -14 -36 36 39 88 149 95 202 l7 50 41 -3 41 -3 -3
-42 c-3 -33 0 -43 11 -43 11 0 15 13 17 48 3 63 1 238 -2 282 l-3 35 -110 6
c-60 4 25 4 190 2 165 -3 321 -4 348 -3 41 1 47 -2 47 -19 0 -17 8 -20 65 -23
l65 -3 1 33 c1 17 3 37 4 42 1 6 3 15 4 21 1 6 30 9 81 7 44 -2 80 0 80 5 0
10 -170 8 -195 -3 -17 -7 -17 -9 -2 -9 9 -1 17 -8 17 -16 0 -12 -13 -15 -55
-15 l-55 0 2 628 c3 549 5 627 18 627 8 0 16 -10 18 -22 2 -13 7 -23 12 -23 4
0 6 9 3 20 -4 16 0 20 20 20 29 0 44 -27 19 -33 -16 -4 -15 -5 1 -6 19 -1 23
-16 7 -26 -7 -4 -9 -200 -8 -563 l3 -557 2 554 c2 389 6 558 14 568 6 7 22 13
34 13 23 0 23 -1 -6 -29 -53 -53 -29 -140 44 -159 98 -26 169 88 98 159 -27
27 -28 29 -9 29 12 0 18 3 14 8 -4 4 -42 7 -84 8 l-76 1 -2 31 c-3 50 -11 62
-42 62 -49 0 -92 -12 -92 -25 0 -17 -105 -24 -294 -19 -87 2 -163 4 -168 4 -5
0 -9 68 -8 168 2 216 -2 277 -18 292 -11 10 -13 3 -11 -41 l3 -54 -37 -6 c-29
-4 -40 -2 -47 10 -8 14 -9 14 -10 -1 0 -15 -9 -18 -46 -18 -39 0 -50 5 -80 36
l-34 37 0 103 c0 63 -4 104 -10 104 -6 0 -10 -47 -10 -120 l0 -120 -75 0 -75
0 0 120 c0 73 -4 120 -10 120 -6 0 -10 -43 -10 -110 l0 -110 -1010 0 -1009 0
-7 36 c-3 19 -4 71 -2 115 3 53 1 79 -6 79 -8 0 -10 -40 -8 -125 l3 -125 -70
0 c-38 0 -73 5 -76 10 -3 6 -6 60 -6 120 0 61 -4 110 -9 110 -5 0 -11 -51 -12
-112 l-3 -113 -28 -3 c-15 -2 -31 -11 -37 -21 -10 -19 -54 -33 -77 -24 -17 7
-16 51 2 103 8 24 13 45 11 47 -6 6 -34 -86 -38 -122 -3 -28 -6 -30 -45 -33
l-43 -3 0 170 0 171 76 0 c96 0 115 -10 107 -53 -3 -17 -17 -52 -31 -77 -27
-50 -22 -46 28 18 35 46 37 55 46 190 l6 82 -34 14 -33 14 35 6 c19 3 86 7
149 10 63 3 120 11 127 17 11 9 13 35 10 116 -3 58 -7 107 -9 110 -3 2 -33 8
-68 13 -63 9 -575 11 -634 3z m360 -251 c-16 -2 -33 -9 -37 -15 -6 -9 -8 -8
-8 2 0 10 -9 12 -35 7 -20 -4 -35 -3 -35 3 0 14 24 17 89 11 38 -3 46 -5 26
-8z m2800 -584 c7 -8 6 -8 -4 -3 -11 6 -12 -4 -8 -58 l5 -65 -30 -6 c-17 -3
-68 -6 -114 -6 l-84 0 0 75 0 74 63 3 c87 4 160 -2 172 -14z m-2768 -156 c10
-6 13 -179 15 -774 l3 -766 -55 -5 c-30 -3 -66 -5 -80 -3 -14 2 -31 4 -37 5
-10 1 -13 163 -13 776 l0 775 78 0 c42 0 83 -4 89 -8z m2743 -74 l5 -77 -70
-3 c-38 -2 -82 -1 -97 1 -28 3 -28 4 -28 83 l0 79 93 -3 92 -3 5 -77z m774
-189 c29 -23 33 -36 12 -36 -8 0 -12 6 -9 13 2 6 0 15 -6 19 -6 3 -11 2 -11
-2 0 -5 -15 -7 -34 -5 -26 3 -37 -1 -50 -19 -11 -16 -16 -19 -17 -9 0 10 -3 8
-8 -5 -10 -24 -2 -62 9 -45 7 11 22 -10 24 -35 1 -5 16 -10 34 -10 17 0 32 5
33 10 1 17 21 35 31 29 5 -3 6 5 2 20 -5 20 -2 26 11 26 25 0 12 -48 -21 -77
-44 -40 -105 -26 -129 30 -34 82 58 151 129 96z m-41 -126 c-7 -2 -19 -2 -25
0 -7 3 -2 5 12 5 14 0 19 -2 13 -5z m-732 -1085 c1 -7 1 -19 0 -26 -1 -8 3
-20 10 -28 9 -12 5 -14 -27 -15 -22 -1 -57 -2 -79 -4 -22 -1 -52 0 -67 3 -25
4 -28 9 -28 43 l0 39 95 0 c69 0 95 -3 96 -12z m12 -105 c-5 -11 -3 -14 6 -8
10 6 11 3 1 -14 -6 -13 -10 -41 -8 -64 l3 -42 -108 -3 -107 -3 0 38 c0 21 -3
55 -6 76 l-7 37 116 0 c104 0 116 -2 110 -17z"/>
<path d="M3868 2849 c-10 -5 -18 -15 -18 -21 0 -6 8 -4 18 5 9 8 31 17 47 20
l30 4 -30 1 c-16 1 -38 -3 -47 -9z"/>
<path d="M3850 2740 c0 -5 5 -10 11 -10 5 0 7 5 4 10 -3 6 -8 10 -11 10 -2 0
-4 -4 -4 -10z"/>
<path d="M3955 2740 c-3 -5 -1 -10 4 -10 6 0 11 5 11 10 0 6 -2 10 -4 10 -3 0
-8 -4 -11 -10z"/>
<path d="M2771 4100 c-18 -4 -37 -14 -42 -22 -14 -22 -11 -204 4 -216 7 -6 64
-13 127 -17 148 -8 188 -14 169 -25 -9 -6 21 -10 81 -12 l95 -3 3 -73 c1 -40
-1 -72 -5 -71 -4 1 -55 1 -113 0 l-105 -1 3 -46 c3 -31 15 -62 38 -97 19 -28
39 -66 45 -84 6 -18 14 -33 19 -33 13 0 -16 65 -56 127 -19 30 -34 66 -34 83
l0 30 90 0 c101 0 110 -6 103 -72 -3 -27 0 -38 9 -38 10 0 12 15 10 60 -3 39
0 60 7 60 7 0 11 29 11 79 l0 79 -32 7 c-54 12 -12 22 117 28 178 8 165 -2
165 132 0 98 -2 114 -17 121 -25 11 -650 15 -692 4z m374 -249 c-17 -4 -53 -4
-80 -1 -45 7 -42 7 30 8 53 0 70 -2 50 -7z"/>
<path d="M2972 3735 c0 -16 2 -22 5 -12 2 9 2 23 0 30 -3 6 -5 -1 -5 -18z"/>
<path d="M4082 3620 c0 -14 2 -19 5 -12 2 6 2 18 0 25 -3 6 -5 1 -5 -13z"/>
<path d="M5374 3340 c0 -135 2 -190 3 -122 2 67 2 177 0 245 -1 67 -3 12 -3
-123z"/>
<path d="M3597 3533 l362 -3 4 -73 3 -72 2 78 2 77 -367 -2 -368 -3 362 -2z"/>
<path d="M3091 3374 c0 -11 3 -14 6 -6 3 7 2 16 -1 19 -3 4 -6 -2 -5 -13z"/>
<path d="M4025 2430 c0 -223 1 -314 2 -203 2 112 2 294 0 405 -1 112 -2 21 -2
-202z"/>
<path d="M3861 2636 c-87 -48 -50 -186 49 -186 51 0 100 49 100 99 0 75 -83
124 -149 87z m78 -7 c44 -16 66 -59 51 -105 -13 -38 -37 -55 -81 -56 -33 -1
-79 35 -78 61 0 10 4 8 9 -6 5 -13 12 -23 15 -23 4 0 4 10 0 23 -5 19 -4 19 5
5 6 -10 18 -22 28 -28 14 -9 14 -10 -5 -5 -30 8 -30 -3 -1 -14 25 -9 73 0 73
15 2 23 17 54 26 49 12 -8 11 16 -1 35 -6 10 -10 11 -10 3 0 -9 -6 -7 -18 5
-12 11 -14 20 -8 24 11 8 -14 13 -48 9 -28 -2 -56 -30 -56 -54 0 -11 -3 -18
-6 -14 -4 3 -3 18 0 32 6 22 24 36 72 55 1 0 15 -5 33 -11z"/>
<path d="M3966 2513 c-6 -14 -5 -15 5 -6 7 7 10 15 7 18 -3 3 -9 -2 -12 -12z"/>
<path d="M3874 2410 c-12 -4 -31 -21 -43 -36 -75 -95 63 -211 150 -125 51 52
33 128 -37 157 -38 16 -41 16 -70 4z m90 -31 c14 -11 26 -25 26 -31 0 -6 -9 0
-20 13 -10 13 -19 19 -20 14 0 -6 6 -17 13 -25 10 -12 9 -12 -5 -1 -10 7 -18
20 -18 27 0 9 -11 14 -32 13 l-33 -1 30 -8 30 -8 -27 -1 c-15 0 -33 -10 -42
-23 -11 -15 -16 -18 -17 -8 0 10 -3 8 -9 -5 -8 -18 -9 -18 -9 -2 -1 28 44 67
77 67 16 0 41 -9 56 -21z m36 -59 c0 -21 -30 -70 -49 -80 -33 -17 -71 -11 -96
15 -14 13 -25 32 -24 42 0 16 1 16 9 -2 6 -14 9 -15 10 -5 0 11 4 10 13 -5 6
-11 12 -24 12 -30 0 -5 16 -11 35 -12 l35 -1 -30 8 c-30 8 -30 8 -4 9 15 0 32
8 39 16 7 8 16 12 22 9 5 -3 6 5 2 20 -5 20 -2 26 10 26 9 0 16 -5 16 -10z"/>
<path d="M3855 2369 c-11 -17 1 -21 15 -4 8 9 8 15 2 15 -6 0 -14 -5 -17 -11z"/>
<path d="M3850 2270 c0 -5 5 -10 11 -10 5 0 7 5 4 10 -3 6 -8 10 -11 10 -2 0
-4 -4 -4 -10z"/>
<path d="M3950 2265 c-8 -9 -8 -15 -2 -15 12 0 26 19 19 26 -2 2 -10 -2 -17
-11z"/>
<path d="M3864 2169 c-27 -14 -54 -60 -54 -94 0 -39 59 -95 100 -95 23 0 42
10 66 34 25 25 34 43 34 66 0 23 -9 42 -34 66 -36 36 -71 43 -112 23z m75 -10
c44 -16 66 -59 51 -105 -11 -33 -36 -55 -62 -53 -7 0 -4 4 7 9 12 5 14 9 6 9
-11 1 -10 5 4 15 11 8 24 12 29 8 5 -3 6 2 3 12 -4 10 -7 24 -7 32 0 8 -9 23
-20 34 -12 12 -15 20 -7 21 6 0 2 4 -11 9 -35 15 -92 -15 -92 -48 0 -13 3 -12
16 4 14 18 15 18 4 -3 -6 -13 -17 -23 -25 -23 -26 0 3 57 38 74 18 8 32 16 33
16 1 0 15 -5 33 -11z m-83 -129 c3 0 3 7 0 16 -3 9 -2 12 5 9 6 -4 8 -13 5
-21 -4 -9 4 -18 19 -24 28 -11 35 -23 8 -13 -28 10 -63 45 -62 62 0 10 4 8 9
-6 5 -13 12 -23 16 -23z"/>
<path d="M3965 2116 c10 -14 19 -26 22 -26 7 0 -17 39 -28 46 -6 3 -3 -5 6
-20z"/>
<path d="M3845 1916 c-32 -32 -40 -69 -25 -107 39 -93 173 -74 187 26 4 35 1
45 -25 73 -39 42 -100 45 -137 8z m119 -7 c18 -14 26 -28 23 -40 -3 -11 -1
-19 4 -19 5 0 9 -4 9 -10 0 -5 -7 -7 -15 -4 -10 4 -13 13 -9 26 6 20 -11 48
-29 48 -5 0 -2 -10 9 -22 19 -23 19 -23 -2 -5 -11 9 -31 18 -45 18 -21 1 -21
2 6 9 l30 8 -28 1 c-32 1 -67 -15 -67 -31 0 -6 6 -5 17 3 15 13 15 12 2 -8 -8
-14 -16 -18 -20 -11 -4 7 -9 4 -12 -8 -4 -17 -5 -17 -6 -1 -2 27 44 67 77 67
16 0 42 -10 56 -21z m-114 -89 c0 11 4 10 13 -5 6 -11 12 -24 12 -30 0 -5 16
-11 35 -12 l35 -1 -30 8 c-30 8 -30 8 -4 9 15 0 32 8 39 16 14 17 40 20 40 6
0 -18 -53 -51 -82 -51 -33 0 -78 39 -77 67 0 16 1 16 9 -2 6 -14 9 -15 10 -5z"/>
<path d="M3850 1800 c0 -5 5 -10 11 -10 5 0 7 5 4 10 -3 6 -8 10 -11 10 -2 0
-4 -4 -4 -10z"/>
<path d="M3950 1795 c-7 -8 -8 -15 -2 -15 5 0 15 7 22 15 7 8 8 15 2 15 -5 0
-15 -7 -22 -15z"/>
<path d="M3747 1713 c-10 -10 -8 -23 4 -23 5 0 8 4 5 9 -4 5 0 12 6 14 7 3 8
6 2 6 -6 1 -14 -2 -17 -6z"/>
<path d="M4023 1303 l47 -4 0 -69 c0 -96 13 -110 100 -110 l66 0 3 -45 c2 -45
2 -45 -31 -45 -18 0 -40 -5 -48 -10 -11 -7 -4 -10 28 -10 l42 0 0 -354 0 -354
-26 -6 c-31 -8 -96 3 -107 18 -5 7 -7 3 -5 -9 3 -17 13 -21 78 -25 l75 -5 -1
448 c-1 246 -4 450 -7 454 -4 3 -7 -3 -7 -15 0 -20 -5 -22 -64 -22 -39 0 -68
5 -72 12 -11 18 -4 132 9 141 8 6 6 7 -5 3 -10 -3 -20 -1 -23 4 -4 6 -27 9
-53 8 l-47 -2 48 -3z"/>
<path d="M381 1290 c-1 -19 33 -93 59 -131 12 -15 22 -46 24 -68 l3 -40 -51
-5 c-28 -3 -69 -5 -91 -3 -36 2 -40 5 -46 32 -5 30 -5 30 -10 -8 -3 -21 -3
-40 0 -42 2 -3 51 -5 107 -5 l103 0 -2 -65 c-1 -36 2 -67 8 -69 5 -3 2 -5 -7
-5 -10 -1 -18 -5 -18 -11 0 -6 9 -6 23 -1 20 8 22 15 23 90 1 46 -2 81 -8 81
-5 0 -8 17 -6 37 2 28 -3 44 -21 63 -24 26 -58 84 -78 135 -6 17 -12 23 -12
15z"/>
<path d="M3617 1293 l342 -3 4 -73 3 -72 2 78 2 77 -347 -2 -348 -3 342 -2z"/>
<path d="M3194 1110 c1 -28 -1 -53 -5 -55 -14 -9 -125 -16 -156 -10 -25 4 -33
11 -34 28 -1 17 -3 15 -8 -8 -4 -16 -6 -33 -4 -37 2 -5 53 -8 113 -8 l110 0
-3 -67 c-1 -38 -6 -71 -12 -75 -5 -4 -44 -8 -86 -8 -41 0 -80 -5 -85 -10 -6
-6 -56 -13 -110 -15 -156 -7 -183 -13 -189 -38 -3 -12 -4 -62 -3 -112 4 -127
-17 -120 383 -119 216 0 329 4 348 12 l27 12 0 110 c0 109 0 111 -26 120 -14
6 -62 10 -107 10 -127 0 -197 17 -136 33 19 5 20 10 14 94 -3 48 -7 112 -8
141 -1 33 -6 52 -14 52 -9 0 -11 -16 -9 -50z m-43 -281 c9 -5 -13 -9 -58 -9
-41 0 -73 4 -73 10 0 12 112 11 131 -1z"/>
<path d="M4083 1075 c0 -22 2 -30 4 -17 2 12 2 30 0 40 -3 9 -5 -1 -4 -23z"/>
<path d="M638 1093 c6 -2 18 -2 25 0 6 3 1 5 -13 5 -14 0 -19 -2 -12 -5z"/>
<path d="M2823 1093 c15 -2 37 -2 50 0 12 2 0 4 -28 4 -27 0 -38 -2 -22 -4z"/>
<path d="M4100 1020 c0 -5 10 -10 23 -10 18 0 19 2 7 10 -19 13 -30 13 -30 0z"/>
<path d="M253 945 c0 -33 2 -45 4 -27 2 18 2 45 0 60 -2 15 -4 0 -4 -33z"/>
<path d="M4094 840 c0 -80 2 -112 3 -72 2 39 2 105 0 145 -1 39 -3 7 -3 -73z"/>
<path d="M380 872 c-35 -2 -70 -8 -77 -13 -6 -6 -56 -12 -110 -15 -115 -5
-163 -12 -180 -26 -9 -7 -13 -43 -13 -114 0 -104 0 -104 28 -116 50 -22 687
-15 723 8 5 3 9 56 9 118 l0 114 -32 5 c-18 4 -86 9 -151 13 -68 4 -121 11
-125 18 -4 7 -32 10 -72 8z m4 -36 c52 -9 40 -16 -25 -16 -57 1 -62 2 -46 15
11 7 24 12 30 10 7 -3 25 -7 41 -9z"/>
<path d="M4093 460 c0 -47 2 -66 4 -42 2 23 2 61 0 85 -2 23 -4 4 -4 -43z"/>
<path d="M4242 228 l-2 -38 -76 0 c-47 0 -73 -4 -69 -10 3 -5 37 -10 75 -10
83 0 94 -12 88 -96 -3 -50 4 -70 14 -41 8 22 0 130 -11 136 -5 4 -11 27 -14
51 -3 43 -4 43 -5 8z"/>
<path d="M5138 173 c12 -2 32 -2 45 0 12 2 2 4 -23 4 -25 0 -35 -2 -22 -4z"/>
<path d="M4370 96 c0 -46 4 -75 10 -71 9 5 5 134 -5 143 -3 3 -5 -29 -5 -72z"/>
<path d="M5101 128 c-1 -27 4 -48 9 -48 12 0 12 34 0 70 -7 20 -8 16 -9 -22z"/>
<path d="M5104 56 c-15 -38 0 -51 56 -52 l55 -1 -52 4 c-52 4 -52 4 -46 34 6
30 -3 40 -13 15z"/>
<path d="M4298 3 c12 -2 32 -2 45 0 12 2 2 4 -23 4 -25 0 -35 -2 -22 -4z"/>
</g>
</svg>
